# Blender v2.78 (sub 0) OBJ File: 'glass.blend'
# www.blender.org
mtllib glasstest.mtl
o Cube_Cube.001
v -1.000000 -1.000000 1.000000
v -1.000000 3.893660 1.000000
v -1.000000 -1.000000 -1.000000
v -1.000000 3.893660 -1.000000
v 0.006665 -1.000000 1.000000
v 0.006665 3.893660 1.000000
v 0.006665 -1.000000 -1.000000
v 0.006665 3.893660 -1.000000
v -1.000000 -1.000000 0.754962
v -1.000000 3.893660 0.754962
v 0.006665 -1.000000 0.754962
v 0.006665 3.893660 0.754962
v -1.000000 3.893660 -0.756456
v 0.006665 -1.000000 -0.756456
v -1.000000 -1.000000 -0.756456
v 0.006665 3.893660 -0.756456
v -1.000000 3.599179 1.000000
v -1.000000 3.599179 -1.000000
v 0.006665 3.599179 -1.000000
v 0.006665 3.599179 1.000000
v 0.006665 3.599179 0.754962
v -1.000000 3.599179 0.754962
v 0.006665 3.599179 -0.756456
v -1.000000 3.599179 -0.756456
v -1.000000 -0.581769 -1.000000
v 0.006665 -0.581769 -1.000000
v 0.006665 -0.581769 1.000000
v 0.006665 -0.581769 0.754962
v -1.000000 -0.581769 0.754962
v 0.006665 -0.581769 -0.756456
v -1.000000 -0.581769 -0.756456
v -1.000000 -0.581769 1.000000
vt 0.3083 0.8465
vt 0.3254 0.8324
vt 0.3366 0.8676
vt 0.3117 0.8338
vt 0.2988 0.7990
vt 0.2510 0.8142
vt 0.2427 0.8041
vt 0.2499 0.8033
vt 0.2449 0.8139
vt 0.2148 0.8387
vt 0.2547 0.6316
vt 0.2361 0.6097
vt 0.2398 0.5992
vt 0.2373 0.8564
vt 0.2900 0.8106
vt 0.2901 0.6280
vt 0.2992 0.5893
vt 0.2908 0.7985
vt 0.2303 0.8431
vt 0.2026 0.8863
vt 0.2960 0.8085
vt 0.2958 0.6278
vt 0.3063 0.5999
vt 0.6802 0.2447
vt 0.4125 0.3793
vt 0.4121 0.2461
vt 0.2923 0.6424
vt 0.2993 0.6411
vt 0.2026 0.5716
vt 0.2150 0.6087
vt 0.6798 0.1115
vt 0.4121 0.2460
vt 0.4118 0.1129
vt 0.4549 0.6612
vt 0.0969 0.7607
vt 0.0995 0.6466
vt 0.2448 0.6460
vt 0.2527 0.6472
vt 0.3304 0.6021
vt 0.3438 0.5512
vt 0.2488 0.6334
vt 0.6806 0.3779
vt 0.6802 0.2446
vt 0.4522 0.7753
vn -1.0000 0.0000 0.0000
vn 0.0000 0.0000 -1.0000
vn 1.0000 0.0000 0.0000
vn 0.0000 0.0000 1.0000
vn 0.0000 -1.0000 0.0000
vn 0.0000 1.0000 0.0000
usemtl Material.001
s off
f 13/1/1 18/2/1 24/3/1
f 4/4/2 19/5/2 18/2/2
f 12/6/3 20/7/3 21/8/3
f 6/9/4 17/10/4 20/7/4
f 11/11/5 1/12/5 9/13/5
f 10/14/6 6/9/6 12/6/6
f 13/1/6 12/6/6 16/15/6
f 14/16/5 9/13/5 15/17/5
f 16/15/3 21/8/3 23/18/3
f 2/19/1 22/20/1 17/10/1
f 8/21/3 23/18/3 19/5/3
f 7/22/5 15/17/5 3/23/5
f 4/4/6 16/15/6 8/21/6
f 10/14/1 24/3/1 22/20/1
f 22/24/1 31/25/1 29/26/1
f 19/5/3 30/27/3 26/28/3
f 17/10/1 29/29/1 32/30/1
f 23/31/3 28/32/3 30/33/3
f 20/34/4 32/35/4 27/36/4
f 21/8/3 27/37/3 28/38/3
f 18/2/2 26/28/2 25/39/2
f 24/3/1 25/39/1 31/40/1
f 31/40/1 3/23/1 15/17/1
f 25/39/2 7/22/2 3/23/2
f 28/38/3 5/41/3 11/11/3
f 27/37/4 1/12/4 5/41/4
f 30/27/3 11/11/3 14/16/3
f 32/30/1 9/13/1 1/12/1
f 26/28/3 14/16/3 7/22/3
f 29/29/1 15/17/1 9/13/1
f 13/1/1 4/4/1 18/2/1
f 4/4/2 8/21/2 19/5/2
f 12/6/3 6/9/3 20/7/3
f 6/9/4 2/19/4 17/10/4
f 11/11/5 5/41/5 1/12/5
f 10/14/6 2/19/6 6/9/6
f 13/1/6 10/14/6 12/6/6
f 14/16/5 11/11/5 9/13/5
f 16/15/3 12/6/3 21/8/3
f 2/19/1 10/14/1 22/20/1
f 8/21/3 16/15/3 23/18/3
f 7/22/5 14/16/5 15/17/5
f 4/4/6 13/1/6 16/15/6
f 10/14/1 13/1/1 24/3/1
f 22/24/1 24/42/1 31/25/1
f 19/5/3 23/18/3 30/27/3
f 17/10/1 22/20/1 29/29/1
f 23/31/3 21/43/3 28/32/3
f 20/34/4 17/44/4 32/35/4
f 21/8/3 20/7/3 27/37/3
f 18/2/2 19/5/2 26/28/2
f 24/3/1 18/2/1 25/39/1
f 31/40/1 25/39/1 3/23/1
f 25/39/2 26/28/2 7/22/2
f 28/38/3 27/37/3 5/41/3
f 27/37/4 32/30/4 1/12/4
f 30/27/3 28/38/3 11/11/3
f 32/30/1 29/29/1 9/13/1
f 26/28/3 30/27/3 14/16/3
f 29/29/1 31/40/1 15/17/1
