# Blender v2.78 (sub 0) OBJ File: 'SteveTest3.blend'
# www.blender.org
o Cube_Cube.001
v 1.059187 6.181517 -1.006994
v 1.059187 4.181517 -1.006994
v 1.059187 6.181517 0.993006
v 1.059187 4.181517 0.993006
v -0.940813 6.181517 -1.006994
v -0.940813 4.181517 -1.006994
v -0.940813 6.181517 0.993006
v -0.940813 4.181517 0.993006
v -0.960986 1.105299 0.541236
v -0.960986 4.210267 0.541236
v -0.960986 1.105299 -0.526455
v -0.960986 4.210267 -0.526455
v 1.039014 1.105299 0.541236
v 1.039014 4.210267 0.541236
v 1.039014 1.105299 -0.526455
v 1.039014 4.210267 -0.526455
v 0.001653 -2.021331 0.210848
v 0.001653 1.041335 0.530585
v 0.001653 -1.910777 -0.848115
v 0.001653 1.151889 -0.528378
v 1.043419 -2.021331 0.210848
v 1.043419 1.041335 0.530585
v 1.043419 -1.910777 -0.848115
v 1.043419 1.151889 -0.528378
v -1.028659 -1.835262 0.879874
v -1.028659 1.217605 0.477183
v -1.028659 -1.974499 -0.175701
v -1.028659 1.078368 -0.578392
v 0.013107 -1.835262 0.879874
v 0.013107 1.217605 0.477183
v 0.013107 -1.974499 -0.175701
v 0.013107 1.078368 -0.578392
v 1.188247 1.198892 0.980026
v 1.047705 4.237809 0.503175
v 1.188247 1.033842 -0.071822
v 1.047705 4.072759 -0.548672
v 2.228927 1.245864 0.972656
v 2.088385 4.284781 0.495805
v 2.228927 1.080814 -0.079192
v 2.088385 4.119731 -0.556042
v -2.159880 1.112327 -0.034434
v -1.994669 4.124324 0.584219
v -2.176447 1.327390 -1.077074
v -2.011236 4.339387 -0.458421
v -1.119741 1.060850 -0.061580
v -0.954530 4.072847 0.557073
v -1.136308 1.275913 -1.104220
v -0.971098 4.287910 -0.485567
vt 0.1226 0.7489
vt -0.0053 0.4932
vt 0.1226 0.4932
vt 0.2511 0.7482
vt 0.1240 0.5032
vt 0.2511 0.5032
vt 0.2496 0.7503
vt 0.3720 0.9983
vt 0.3720 0.7503
vt 0.5017 0.7533
vt 0.3734 0.4967
vt 0.5017 0.4967
vt 0.3734 0.7520
vt 0.2478 0.5040
vt 0.3734 0.5040
vt 0.1271 1.0014
vt 0.2496 0.7503
vt 0.2496 1.0014
vt 0.4400 0.3740
vt 0.5011 0.0011
vt 0.4407 0.0020
vt 0.4989 0.3732
vt 0.6236 0.0020
vt 0.4996 0.0011
vt 0.2518 0.3741
vt 0.3110 0.0026
vt 0.2517 0.0003
vt 0.3129 0.3732
vt 0.4376 0.0020
vt 0.3135 0.0011
vt 0.5609 0.3763
vt 0.4391 0.5012
vt 0.4391 0.3763
vt 0.4369 0.3763
vt 0.3135 0.5012
vt 0.3135 0.3763
vt 0.7748 0.3484
vt 0.2252 0.8980
vt 0.2252 0.3484
vt 0.7748 0.3484
vt 0.2252 0.8980
vt 0.2252 0.3484
vt 0.7748 0.3484
vt 0.2252 0.8980
vt 0.2252 0.3484
vt 0.7748 0.3484
vt 0.2252 0.8980
vt 0.2252 0.3484
vt 0.7748 0.3484
vt 0.2252 0.8980
vt 0.2252 0.3484
vt 0.7748 0.3484
vt 0.2252 0.8980
vt 0.2252 0.3484
vt 0.7748 0.3484
vt 0.2252 0.8980
vt 0.2252 0.3484
vt 0.2252 0.3484
vt 0.7748 0.8980
vt 0.2252 0.8980
vt 0.7748 0.3484
vt 0.2252 0.8980
vt 0.2252 0.3484
vt 0.7748 0.3484
vt 0.2252 0.8980
vt 0.2252 0.3484
vt 0.6865 0.3732
vt 0.6282 0.0020
vt 0.6871 0.0011
vt 0.8158 0.0011
vt 0.8740 0.3740
vt 0.8747 0.0020
vt 0.8105 0.3763
vt 0.7507 0.0020
vt 0.8112 0.0011
vt 0.7485 0.3701
vt 0.6902 -0.0011
vt 0.7492 -0.0020
vt 0.8145 0.3753
vt 0.7498 0.4990
vt 0.7498 0.3753
vt 0.6871 0.3794
vt 0.7469 0.5012
vt 0.6871 0.5012
vt 0.6865 0.3732
vt 0.6282 0.0020
vt 0.6871 0.0011
vt 0.8151 0.3732
vt 0.8747 0.0020
vt 0.8158 0.0011
vt 0.8105 0.3763
vt 0.7507 0.0020
vt 0.8112 0.0011
vt 0.7485 0.3701
vt 0.6902 -0.0011
vt 0.7492 -0.0020
vt 0.8145 0.3753
vt 0.7498 0.4990
vt 0.7498 0.3753
vt 0.6871 0.3794
vt 0.7469 0.5012
vt 0.6871 0.5012
vt -0.0053 0.7489
vt 0.1240 0.7482
vt 0.2496 0.9983
vt 0.3734 0.7533
vt 0.2478 0.7520
vt 0.1271 0.7503
vt 0.5004 0.3732
vt 0.6229 0.3740
vt 0.3112 0.3733
vt 0.4369 0.3740
vt 0.5609 0.5012
vt 0.4369 0.5012
vt 0.7748 0.8980
vt 0.7748 0.8980
vt 0.7748 0.8980
vt 0.7748 0.8980
vt 0.7748 0.8980
vt 0.7748 0.8980
vt 0.7748 0.8980
vt 0.7748 0.3484
vt 0.7748 0.8980
vt 0.7748 0.8980
vt 0.6275 0.3740
vt 0.8151 0.3732
vt 0.7500 0.3771
vt 0.6896 0.3709
vt 0.8145 0.4990
vt 0.7469 0.3794
vt 0.6275 0.3740
vt 0.8740 0.3740
vt 0.7500 0.3771
vt 0.6896 0.3709
vt 0.8145 0.4990
vt 0.7469 0.3794
vn -1.0000 0.0000 0.0000
vn 0.0000 0.0000 1.0000
vn 0.0000 -1.0000 0.0000
vn 0.0000 0.0000 -1.0000
vn 1.0000 0.0000 0.0000
vn 0.0000 1.0000 0.0000
vn 0.0000 0.1038 -0.9946
vn 0.0000 -0.1038 0.9946
vn 0.0000 -0.9946 -0.1038
vn 0.0000 0.9946 0.1038
vn 0.0000 -0.1308 -0.9914
vn 0.0000 0.1308 0.9914
vn 0.0000 -0.9914 0.1308
vn 0.0000 0.9914 -0.1308
vn -0.9990 -0.0451 0.0071
vn 0.0000 -0.1550 -0.9879
vn 0.9990 0.0451 -0.0071
vn -0.0000 0.1550 0.9879
vn 0.0456 -0.9869 0.1549
vn -0.0456 0.9869 -0.1549
vn -0.9984 0.0494 0.0261
vn -0.0156 0.2020 -0.9793
vn 0.9984 -0.0494 -0.0261
vn 0.0156 -0.2020 0.9793
vn -0.0537 -0.9781 -0.2009
vn 0.0537 0.9781 0.2009
usemtl Herobrine
s off
f 7/1/1 6/2/1 8/3/1
f 3/4/2 8/5/2 4/6/2
f 2/7/3 8/8/3 6/9/3
f 5/10/4 2/11/4 6/12/4
f 1/13/5 4/14/5 2/15/5
f 5/16/6 3/17/6 1/18/6
f 10/19/1 11/20/1 9/21/1
f 12/22/4 15/23/4 11/24/4
f 16/25/5 13/26/5 15/27/5
f 14/28/2 9/29/2 13/30/2
f 15/31/3 9/32/3 11/33/3
f 12/34/6 14/35/6 16/36/6
f 18/37/1 19/38/1 17/39/1
f 20/40/7 23/41/7 19/42/7
f 24/43/5 21/44/5 23/45/5
f 22/46/8 17/47/8 21/48/8
f 23/49/9 17/47/9 19/42/9
f 20/40/10 22/50/10 24/51/10
f 26/52/1 27/53/1 25/54/1
f 28/55/11 31/56/11 27/57/11
f 31/58/5 30/59/5 29/60/5
f 30/61/12 25/62/12 29/63/12
f 31/64/13 25/62/13 27/57/13
f 28/55/14 30/65/14 32/66/14
f 34/67/15 35/68/15 33/69/15
f 35/70/16 40/71/16 39/72/16
f 40/73/17 37/74/17 39/75/17
f 38/76/18 33/77/18 37/78/18
f 39/79/19 33/80/19 35/81/19
f 40/82/20 34/83/20 38/84/20
f 42/85/21 43/86/21 41/87/21
f 44/88/22 47/89/22 43/90/22
f 48/91/23 45/92/23 47/93/23
f 46/94/24 41/95/24 45/96/24
f 47/97/25 41/98/25 43/99/25
f 48/100/26 42/101/26 46/102/26
f 7/1/1 5/103/1 6/2/1
f 3/4/2 7/104/2 8/5/2
f 2/7/3 4/105/3 8/8/3
f 5/10/4 1/106/4 2/11/4
f 1/13/5 3/107/5 4/14/5
f 5/16/6 7/108/6 3/17/6
f 10/19/1 12/109/1 11/20/1
f 12/22/4 16/110/4 15/23/4
f 16/25/5 14/111/5 13/26/5
f 14/28/2 10/112/2 9/29/2
f 15/31/3 13/113/3 9/32/3
f 12/34/6 10/114/6 14/35/6
f 18/37/1 20/115/1 19/38/1
f 20/40/7 24/116/7 23/41/7
f 24/43/5 22/117/5 21/44/5
f 22/46/8 18/118/8 17/47/8
f 23/49/9 21/119/9 17/47/9
f 20/40/10 18/118/10 22/50/10
f 26/52/1 28/120/1 27/53/1
f 28/55/11 32/121/11 31/56/11
f 31/58/5 32/122/5 30/59/5
f 30/61/12 26/123/12 25/62/12
f 31/64/13 29/124/13 25/62/13
f 28/55/14 26/123/14 30/65/14
f 34/67/15 36/125/15 35/68/15
f 35/70/16 36/126/16 40/71/16
f 40/73/17 38/127/17 37/74/17
f 38/76/18 34/128/18 33/77/18
f 39/79/19 37/129/19 33/80/19
f 40/82/20 36/130/20 34/83/20
f 42/85/21 44/131/21 43/86/21
f 44/88/22 48/132/22 47/89/22
f 48/91/23 46/133/23 45/92/23
f 46/94/24 42/134/24 41/95/24
f 47/97/25 45/135/25 41/98/25
f 48/100/26 44/136/26 42/101/26
