# Blender v2.78 (sub 0) OBJ File: 'Domek.blend'
# www.blender.org
mtllib Domek.mtl
o Cube_Cube.001
v -1.167436 0.018137 -4.618714
v -1.167436 2.449398 -4.618714
v -1.167436 0.018137 -7.049974
v -1.167436 2.449398 -7.049974
v 1.263825 0.018137 -4.618714
v 1.263825 2.449398 -4.618714
v 1.263825 0.018137 -7.049974
v 1.263825 2.449398 -7.049974
v -1.167436 1.049374 -4.618714
v -1.167436 1.049374 -7.049974
v 1.263825 1.049374 -7.049974
v 1.263825 1.049374 -4.618714
v -1.167436 1.694751 -4.618714
v -1.167436 1.694751 -7.049974
v 1.263825 1.694751 -7.049974
v 1.263825 1.694751 -4.618714
v -0.219776 0.018137 -7.049974
v -0.219776 2.449398 -7.049974
v -0.219776 0.018137 -4.618714
v -0.219776 2.449398 -4.618714
v -0.219776 1.049374 -4.618714
v -0.219776 1.049374 -7.049974
v -0.219776 1.694751 -4.618714
v -0.219776 1.694751 -7.049974
v 0.467277 2.449398 -7.049974
v 0.467277 0.018137 -4.618714
v 0.467277 1.049374 -7.049974
v 0.467277 1.694751 -7.049974
v 0.467278 0.018137 -7.049974
v 0.467278 2.449398 -4.618714
v 0.467278 1.049374 -4.618714
v 0.467278 1.694751 -4.618714
v -1.167436 0.018137 -5.282538
v -1.167436 2.449398 -5.282538
v 1.263825 0.018137 -5.282538
v 1.263825 2.449398 -5.282538
v 1.263825 1.323061 -5.282538
v -1.167436 1.049374 -5.282538
v 1.263825 1.694751 -5.282538
v -1.167436 1.694751 -5.282538
v -0.219776 0.018137 -5.282538
v 0.467277 0.018137 -5.282538
v -1.167436 2.449398 -5.852210
v 1.263825 0.018137 -5.852210
v -1.167436 1.049374 -5.852210
v -1.167436 1.694751 -5.852210
v -1.167436 0.018137 -5.852210
v 1.263825 2.449398 -5.852210
v 1.263825 1.323061 -5.852210
v 1.263825 1.694751 -5.852210
v -0.219776 0.018137 -5.852210
v 0.467277 0.018137 -5.852210
v -1.167436 0.018137 -7.049974
v 1.263825 0.018137 -7.049974
v 1.263825 0.018137 -4.618714
v -1.167436 0.018137 -4.618714
v -0.219776 0.018137 -7.049974
v -0.219776 0.018137 -4.618714
v 0.467277 0.018137 -4.618714
v 0.467278 0.018137 -7.049974
v -1.167436 0.018137 -5.282538
v 1.263825 0.018137 -5.282538
v 1.263825 0.018137 -5.852210
v -1.167436 0.018137 -5.852210
v -1.167436 2.449399 -4.618714
v -1.167436 2.449399 -7.049974
v 1.263825 2.449399 -4.618714
v 1.263825 2.449399 -7.049974
v -1.670264 2.449399 -4.115886
v -1.670264 2.449399 -7.552803
v 1.766653 2.449399 -4.115886
v 1.766653 2.449399 -7.552803
v -0.430696 4.083735 -5.355453
v -0.430696 4.083735 -6.313235
v 0.527085 4.083735 -5.355453
v 0.527085 4.083735 -6.313235
v -0.219776 2.449399 -7.049974
v -0.219776 2.449399 -4.618714
v -0.330618 2.449399 -7.552803
v -0.330618 2.449399 -4.115886
v -0.057371 4.083735 -6.313235
v -0.057371 4.083735 -5.355453
v 0.467277 2.449399 -7.049974
v 0.640625 2.449399 -7.552803
v 0.213290 4.083735 -6.313235
v 0.467278 2.449399 -4.618714
v 0.640625 2.449399 -4.115886
v 0.213290 4.083735 -5.355453
v -1.167436 2.449399 -5.282538
v 1.263825 2.449399 -5.282538
v -1.670264 2.449399 -5.054292
v 1.766653 2.449399 -5.054292
v -0.430696 4.083735 -5.616963
v 0.527085 4.083735 -5.616963
v -1.167436 2.449399 -5.852210
v -1.670264 2.449399 -5.859599
v -0.430696 4.083735 -5.841383
v 1.263825 2.449399 -5.852210
v 1.766653 2.449399 -5.859599
v 0.527085 4.083735 -5.841383
vt 0.8290 0.4694
vt 0.7384 0.1273
vt 0.8922 0.4693
vt 0.7390 0.8115
vt 0.7388 0.5013
vt 0.7388 0.6001
vt 0.7387 0.4376
vt 0.7628 0.4694
vt 0.6484 0.4695
vt 0.5853 0.4696
vt 0.7386 0.3388
vt 0.7147 0.4695
vt 0.1451 0.4726
vt 0.2737 0.4669
vt 0.2082 0.5150
vt 0.4340 0.4509
vt 0.4062 0.5474
vt 0.3799 0.4989
vt 0.4158 0.7086
vt 0.3311 0.6778
vt 0.3712 0.6544
vt 0.2323 0.6578
vt 0.1162 0.6246
vt 0.1948 0.6024
vt 0.3223 0.5997
vt 0.2963 0.6047
vt 0.3048 0.5895
vt 0.2568 0.6270
vt 0.2667 0.5839
vt 0.2793 0.5959
vt 0.3226 0.5999
vt 0.3216 0.6415
vt 0.3122 0.6092
vt 0.3519 0.5249
vt 0.3377 0.5645
vt 0.3263 0.5518
vt 0.2412 0.5365
vt 0.2893 0.5385
vt 0.2755 0.5540
vt 0.2337 0.5912
vt 0.3567 0.6370
vt 0.3701 0.5561
vt 0.2826 0.5045
vt 0.3251 0.5077
vt 0.3103 0.5426
vt 0.2853 0.6417
vt 0.2961 0.6050
vt 0.2895 0.5807
vt 0.2670 0.5838
vt 0.2684 0.5693
vt 0.2598 0.7457
vt 0.2766 0.6776
vt 0.2577 0.3945
vt 0.3395 0.4714
vt 0.3493 0.7449
vt 0.2795 0.5957
vt 0.3681 0.4038
vt 0.3122 0.5764
vt 0.2967 0.5677
vt 0.2758 0.5542
vt 0.2322 0.5613
vt 0.3955 0.6245
vt 0.3747 0.6144
vt 0.2681 0.5693
vt 0.4563 0.6594
vt 0.1927 0.5539
vt 0.4753 0.5329
vt 0.3260 0.5521
vt 0.3311 0.5855
vt 0.3314 0.5856
vt 0.3102 0.5429
vt 0.2895 0.5389
vt 0.1162 0.5377
vt 0.3373 0.5645
vt 0.3122 0.6089
vt 0.1905 0.7124
vn 0.0000 -1.0000 -0.0000
vn 0.7968 0.6043 0.0000
vn 0.0000 0.6043 0.7968
vn 0.0000 0.6043 -0.7968
vn -0.7968 0.6043 0.0000
vn -1.0000 0.0000 0.0000
vn 0.0000 0.0000 -1.0000
vn 1.0000 0.0000 0.0000
vn 0.0000 0.0000 1.0000
usemtl dach
s off
f 71/1/1 65/2/1 67/3/1
f 68/4/1 71/1/1 67/3/1
f 76/5/2 71/1/2 72/6/2
f 73/7/3 71/1/3 75/8/3
f 70/9/1 68/4/1 66/10/1
f 70/9/4 76/5/4 72/6/4
f 70/9/1 65/2/1 69/11/1
f 73/7/5 70/9/5 69/11/5
f 71/1/1 69/11/1 65/2/1
f 68/4/1 72/6/1 71/1/1
f 76/5/2 75/8/2 71/1/2
f 73/7/3 69/11/3 71/1/3
f 70/9/1 72/6/1 68/4/1
f 70/9/4 74/12/4 76/5/4
f 70/9/1 66/10/1 65/2/1
f 73/7/5 74/12/5 70/9/5
usemtl sciana
f 43/13/6 14/14/6 46/15/6
f 25/16/7 15/17/7 28/18/7
f 36/19/8 16/20/8 39/21/8
f 23/22/9 2/23/9 13/24/9
f 35/25/1 26/26/1 42/27/1
f 21/28/9 56/29/9 58/30/9
f 62/31/8 12/32/8 55/33/8
f 27/34/7 54/35/7 60/36/7
f 45/37/6 53/38/6 64/39/6
f 21/28/9 13/24/9 9/40/9
f 37/41/8 16/20/8 12/32/8
f 28/18/7 11/42/7 27/34/7
f 46/15/6 10/43/6 45/37/6
f 14/14/7 22/44/7 10/43/7
f 10/43/7 57/45/7 53/38/7
f 31/46/9 58/30/9 59/47/9
f 41/48/1 1/49/1 33/50/1
f 30/51/9 23/22/9 32/52/9
f 4/53/7 24/54/7 14/14/7
f 6/55/9 32/52/9 16/20/9
f 12/32/9 59/47/9 55/33/9
f 16/20/9 31/46/9 12/32/9
f 24/54/7 27/34/7 22/44/7
f 22/44/7 60/36/7 57/45/7
f 42/27/1 19/56/1 41/48/1
f 18/57/7 28/18/7 24/54/7
f 52/58/1 41/48/1 51/59/1
f 51/59/1 33/50/1 47/60/1
f 13/24/6 38/61/6 9/40/6
f 50/62/8 37/41/8 49/63/8
f 9/40/6 61/64/6 56/29/6
f 52/58/1 35/25/1 42/27/1
f 48/65/8 39/21/8 50/62/8
f 2/23/6 40/66/6 13/24/6
f 8/67/8 50/62/8 15/17/8
f 29/68/1 44/69/1 52/58/1
f 11/42/8 63/70/8 54/35/8
f 15/17/8 49/63/8 11/42/8
f 17/71/1 47/60/1 3/72/1
f 29/68/1 51/59/1 17/71/1
f 40/66/6 45/37/6 38/61/6
f 38/61/6 64/39/6 61/64/6
f 34/73/6 46/15/6 40/66/6
f 61/64/9 47/60/9 33/50/9
f 54/35/9 44/69/9 7/74/9
f 63/70/9 35/25/9 44/69/9
f 56/29/9 33/50/9 1/49/9
f 57/45/9 29/68/9 17/71/9
f 55/33/9 26/26/9 5/75/9
f 59/47/9 19/56/9 26/26/9
f 53/38/9 17/71/9 3/72/9
f 64/39/9 3/72/9 47/60/9
f 60/36/9 7/74/9 29/68/9
f 62/31/9 5/75/9 35/25/9
f 58/30/9 1/49/9 19/56/9
f 43/13/6 4/53/6 14/14/6
f 25/16/7 8/67/7 15/17/7
f 36/19/8 6/55/8 16/20/8
f 23/22/9 20/76/9 2/23/9
f 35/25/1 5/75/1 26/26/1
f 21/28/9 9/40/9 56/29/9
f 62/31/8 37/41/8 12/32/8
f 27/34/7 11/42/7 54/35/7
f 45/37/6 10/43/6 53/38/6
f 21/28/9 23/22/9 13/24/9
f 37/41/8 39/21/8 16/20/8
f 28/18/7 15/17/7 11/42/7
f 46/15/6 14/14/6 10/43/6
f 14/14/7 24/54/7 22/44/7
f 10/43/7 22/44/7 57/45/7
f 31/46/9 21/28/9 58/30/9
f 41/48/1 19/56/1 1/49/1
f 30/51/9 20/76/9 23/22/9
f 4/53/7 18/57/7 24/54/7
f 6/55/9 30/51/9 32/52/9
f 12/32/9 31/46/9 59/47/9
f 16/20/9 32/52/9 31/46/9
f 24/54/7 28/18/7 27/34/7
f 22/44/7 27/34/7 60/36/7
f 42/27/1 26/26/1 19/56/1
f 18/57/7 25/16/7 28/18/7
f 52/58/1 42/27/1 41/48/1
f 51/59/1 41/48/1 33/50/1
f 13/24/6 40/66/6 38/61/6
f 50/62/8 39/21/8 37/41/8
f 9/40/6 38/61/6 61/64/6
f 52/58/1 44/69/1 35/25/1
f 48/65/8 36/19/8 39/21/8
f 2/23/6 34/73/6 40/66/6
f 8/67/8 48/65/8 50/62/8
f 29/68/1 7/74/1 44/69/1
f 11/42/8 49/63/8 63/70/8
f 15/17/8 50/62/8 49/63/8
f 17/71/1 51/59/1 47/60/1
f 29/68/1 52/58/1 51/59/1
f 40/66/6 46/15/6 45/37/6
f 38/61/6 45/37/6 64/39/6
f 34/73/6 43/13/6 46/15/6
f 61/64/9 64/39/9 47/60/9
f 54/35/9 63/70/9 44/69/9
f 63/70/9 62/31/9 35/25/9
f 56/29/9 61/64/9 33/50/9
f 57/45/9 60/36/9 29/68/9
f 55/33/9 59/47/9 26/26/9
f 59/47/9 58/30/9 19/56/9
f 53/38/9 57/45/9 17/71/9
f 64/39/9 53/38/9 3/72/9
f 60/36/9 54/35/9 7/74/9
f 62/31/9 55/33/9 5/75/9
f 58/30/9 56/29/9 1/49/9
l 95 66
l 83 68
l 90 67
l 78 65
l 96 70
l 84 72
l 92 71
l 80 69
l 97 74
l 85 76
l 94 75
l 82 73
l 66 77
l 86 78
l 70 79
l 87 80
l 74 81
l 88 82
l 77 83
l 79 84
l 81 85
l 67 86
l 71 87
l 75 88
l 65 89
l 98 90
l 69 91
l 99 92
l 73 93
l 100 94
l 89 95
l 91 96
l 93 97
l 68 98
l 72 99
l 76 100
